Patient4_TMGait_0pt8_01_left_12_EMG.mot
version=1
nRows=40
nColumns=33
inDegrees=no
endheader
time	1LAddLong	2LGlutMax	3LGlutMed	4LIliopsoas	5LSemiMemb	6LBicFemLong	7LRecFem	8LVastMed	9LVastLat	10LGasMed	11LTibAnt	12lTibPost	13LPeroneusLong	14LSol	15LExtDigLong	16LFlexDigLong	17RAddLong	18RGlutMax	19RGlutMed	20RIliopsoas	21RSemiMemb	22RBicFemLong	23RRecFem	24RVastMed	25RVastLat	26RGasMed	27RTibAnt	28RTibPost	29RPeroneusLong	30RSol	31RExtDigLong	32RFlexDigLong
12.64	-0.003052	-0.48843	-0.090637	0.001373	-0.016327	0.040588	0.29968	0.010376	-0.33905	0.039978	-0.010529	0.009308	-0.03952	-0.010681	0.22446	-0.013123	0.036621	0.59769	-0.33722	-0.22018	0.02182	0.065918	0.168	-0.12726	0.46158	-0.008698	-0.00946	-0.001984	0.26367	0.17502	-0.009003	-0.012054
12.641	-0.011139	-0.56961	-0.099487	-0.00473	-0.003357	0.021057	0.3064	0.005646	-0.34897	0.034485	-0.080566	0.0177	0.042725	-0.041504	-0.090942	-0.019989	-0.005951	0.59158	-0.67627	-0.18478	-0.020447	0.13931	-0.087585	-0.14496	0.49545	-0.010071	0.030975	-0.005798	-0.62546	0.10071	-0.001526	-0.000763
12.642	-0.001831	-0.62637	-0.12711	-0.014038	-0.010529	0.030823	0.29282	0.013733	-0.35721	0.007019	-0.042877	0.017853	0.019684	-0.097656	-0.035095	-0.01709	0.013275	0.61188	-1.1137	-0.15015	-0.2211	0.17364	-0.29266	-0.14496	0.41626	-0.023651	0.093536	-0.002441	-0.34149	0.11261	0.003052	-0.003052
12.643	-0.005798	-0.62592	-0.14603	-0.017548	-0.021057	0.024414	0.28061	0.023346	-0.3627	-0.023956	0.048065	0.014038	0.033264	-0.15472	-0.019226	-0.007782	0.03479	0.77499	-0.29526	-0.31372	-0.084229	0.080109	-0.33493	-0.059662	0.10147	-0.02121	0.27023	-0.007629	-0.072784	0.05661	0.000763	-0.00061
12.644	-0.002747	-0.64224	-0.098877	0.008545	-0.00412	0.024261	0.25986	0.006561	-0.35858	-0.04303	0.087128	0.020752	0.046234	-0.10422	-0.040588	-0.006256	0.028839	0.8461	0.6752	-0.22873	0.08606	0.008545	-0.4216	-0.092316	-0.15427	-0.019073	0.43243	-0.006714	-0.48416	-0.040741	0	0.001526
12.645	-0.003815	-0.67413	-0.081787	0.023193	-0.009155	0.025177	0.20203	0.008392	-0.37354	-0.036163	0.041351	0.010681	0.041962	-0.077515	0.36667	-0.003967	0.020599	0.77255	0.012054	-0.022736	0.051575	0.029449	-0.24216	-0.012665	-0.35431	-0.030823	0.54977	0.024109	-2.2116	-0.001221	0.000305	-0.003204
12.646	0.002441	-0.71121	-0.045471	0.052185	-0.013885	0.001831	0.19058	0.006866	-0.39383	-0.071106	-0.076904	0.009613	0.079346	-0.083618	-0.21011	0.000153	0.010681	0.68405	-0.20752	0.22415	-0.085602	0.050659	-0.045319	0.037384	-0.43823	-0.034485	0.11826	0.021667	-0.70908	-0.22827	0.002899	-0.002899
12.647	0.003204	-0.75333	0.025024	0.065308	-0.010376	0.006409	0.17487	0.013123	-0.39963	-0.053406	-0.16754	0.021057	0.1297	-0.052338	0.059204	0.011139	0.016785	0.60608	0.26718	0.24719	-0.19592	0.015259	0.059662	0.011444	-0.3717	-0.027771	-0.004425	-0.011292	0.4921	-0.39261	0.001373	-0.012054
12.648	0.003662	-0.65399	-0.033569	0.035095	-0.018616	0.001373	0.17334	0.008545	-0.41718	-0.009003	0.037231	0.012817	0.048676	-0.085144	0.19318	0.005035	0.0177	0.57449	0.32837	0.17914	-0.016785	-0.10071	0.06546	-0.10284	-0.23865	-0.023804	0.19104	-0.014038	1.2494	-0.13763	0.000305	-0.007172
12.649	0.000916	-0.62622	-0.041962	0.001984	-0.007324	0.006714	0.17273	0.017548	-0.4361	0.069885	0.076447	0.002136	0.010529	-0.061951	-0.069733	0.005798	0.047913	0.5368	0.27161	0.075378	0.035553	-0.13153	0.15198	-0.20721	-0.17288	-0.015106	0.55832	-0.003204	1.7418	-0.14191	0.001678	-0.01297
12.65	0.001678	-0.65292	-0.049286	-0.009003	-0.012817	0.007019	0.18143	0.014343	-0.47073	0.11932	0.037384	0.009155	-0.020905	0.065613	0.058289	0.011139	0.039673	0.52765	0.061798	0.067291	-0.38635	0.071259	0.1471	-0.32822	-0.10681	-0.006866	0.49164	0.00946	0.86456	-0.35767	-0.001831	-0.002594
12.651	-0.001984	-0.66132	-0.058746	-0.005798	-0.008545	0.006409	0.20264	0.015106	-0.47974	0.10574	0.02655	0.010071	-0.039978	0.11383	0.12924	0.015564	0.065765	0.51361	-0.057831	0.089874	-0.5632	0.13458	0.21805	-0.3273	-0.081177	-0.010071	-0.20538	-0.001221	-0.1004	-0.32974	0.001526	0.001221
12.652	0	-0.65643	-0.063019	0.007324	0.007172	0.000305	0.2182	0.016937	-0.49194	0.088348	0.19806	0.020447	-0.098267	0.079193	0.19333	0.009766	0.012207	0.60211	0.28824	0.01297	-0.47836	0.15091	0.27664	-0.13397	-0.001831	-0.014343	-0.44388	-0.001373	1.2164	-0.11826	0.001831	-0.003052
12.653	0.010376	-0.65887	-0.065002	0.051575	-0.01236	-0.007477	0.22415	0.022736	-0.52917	0.048523	0.17944	0.000763	-0.056458	0.038605	0.14313	0.024261	-0.043182	0.53589	0.025177	-0.11276	0.061646	0.058136	0.041199	0.072327	0.030365	0.000458	-0.33203	-0.003662	-0.54611	-0.05722	-0.00061	-0.001678
12.654	0.007935	-0.67047	-0.076599	0.061798	-0.010681	-0.014801	0.22095	0.012817	-0.56427	0.01297	0.12451	0.002747	0.017242	0.11536	0.058289	0.018921	-0.035706	0.51193	-0.15213	-0.14206	0.51666	0.015411	0.041504	0.12802	-0.078735	0.004883	-0.19104	0	-1.7873	-0.093689	-0.004578	-0.001831
12.655	0.003357	-0.70084	-0.07431	0.028381	-0.010376	-0.036774	0.21606	0.012054	-0.58991	-0.01358	0.15854	0.006256	0.075226	0.076904	0.03067	-0.007477	-0.002747	0.46722	-0.032043	0.008698	0.36514	-0.061493	0.29221	0.12161	-0.065765	0.00473	-0.95917	-0.00351	0.76538	-0.079498	0.003052	-0.013275
12.656	0.003357	-0.78232	-0.042877	-0.014191	-0.009613	-0.039063	0.22522	0.010681	-0.63019	-0.032806	0.014496	0.011902	0.10681	-0.043945	-0.05722	-0.00351	0.041809	0.43625	0.20416	0.18188	0.27283	-0.12421	0.35614	0.093842	-0.12604	-0.009155	-0.72617	-0.002441	1.1736	0.028076	-0.000305	-0.016785
12.657	-0.005951	-0.78888	-0.006409	-0.017548	-0.009613	-0.046844	0.21439	0.014191	-0.65201	-0.074005	-0.2269	0.008545	0.12482	-0.00946	-0.028992	0.001221	0.055084	0.38528	0.18814	0.23804	-0.048065	-0.13519	0.078888	-0.15671	-0.13367	-0.015106	-0.26367	-0.003662	0.28961	0.017548	-0.005188	-0.013123
12.658	-0.004425	-0.69977	-0.032959	-0.002747	-0.007019	-0.017242	0.24796	0.016022	-0.72067	-0.025787	-0.3125	0.009766	0.080261	-0.098114	-0.38711	0.011902	0.005341	0.2504	0.23834	0.12756	-0.34821	-0.092926	-0.26977	-0.27985	-0.14252	-0.01709	-0.053101	-0.003662	-0.43228	0.10101	0.001678	-0.007324
12.659	-0.012512	-0.56351	-0.057373	0.000153	0.00351	-0.041962	0.24124	0.013885	-0.76279	-0.022278	-0.083313	0.014191	0.075989	-0.15427	-0.42313	0.00824	-0.07309	0.15961	0.011444	0.054932	-0.072021	-0.035553	-0.50339	-0.020294	0.16678	-0.01297	-0.44525	-0.006561	-0.19791	0.14771	-0.00061	-0.015106
12.66	-0.002136	-0.43533	-0.060425	0.006409	-0.026245	0.009003	0.25146	0.011444	-0.73105	-0.0177	-0.17136	0.014801	0.052185	-0.16647	-0.17578	0.011444	-0.059204	0.12497	-0.1387	0.10483	-0.03479	-0.13947	-0.40482	0.10849	0.36636	-0.010986	-0.96435	-0.007019	0.58777	0.094757	0.001373	-0.004578
12.661	0.00824	-0.33646	-0.053253	0.004425	-0.020752	0.015106	0.2507	0.014038	-0.63782	-0.001373	-0.10971	0.006409	0.020447	-0.063934	-0.049286	0.009155	-0.018005	0.034027	-0.18784	0.17517	0.066376	-0.20844	-0.44128	-0.046234	0.30197	-0.006561	-0.99533	-0.002441	0.36591	0.048828	-0.001678	-0.000916
12.662	0.004272	-0.23758	-0.032806	0.011444	0.009613	0.015869	0.26474	0.012817	-0.53177	0.049286	-0.11932	0.011902	0.01358	0.032349	-0.084229	0.009003	-0.010681	0.020599	0.13229	0.16953	0.002594	-0.13458	-0.24735	0.039825	0.24292	-0.010986	-0.39475	-0.000305	1.3382	-0.068817	0.004272	-0.005493
12.663	0.008087	-0.15427	-0.093994	-0.003357	0.001678	0.007935	0.25253	0.013733	-0.39993	0.073853	-0.077362	0.007629	0.007477	-0.055389	-0.02594	0.007477	0.006409	-0.001526	0.79605	0.000763	-0.21591	-0.12054	-0.040588	0.16937	0.18555	-0.016937	-0.036316	-0.00351	1.9154	0.045166	-0.000458	0.001526
12.664	0.00473	-0.058136	0.004883	0.000305	-0.007019	0.012665	0.24765	0.012512	-0.2771	0.046844	-0.094299	-0.003662	0.01358	-0.15945	0.15823	0.003357	0.003052	-0.028687	0.19226	-0.035095	-0.33997	-0.048523	0.043335	0.1564	0.24811	-0.009003	0.47424	-0.002289	0.87112	0.074615	-0.000916	-0.002136
12.665	0.007172	-0.006256	0.023499	-0.004883	-0.002747	0.00885	0.24918	0.011597	-0.15793	-0.014801	-0.056	0.015259	0.042114	-0.011902	0.11505	0.001831	-0.011292	-0.11841	-0.10605	0.003815	-0.000305	-0.041809	0.014954	0.11032	0.23987	-0.006561	0.59021	-0.001068	0.7811	-0.11795	0.001526	0.003204
12.666	0.014191	0.037231	-0.031738	-0.009918	-0.027466	0.013428	0.24918	0.012817	-0.063477	-0.087891	-0.047302	0.00885	0.076447	0.1091	0.053711	0.002289	0.008087	-0.099335	0.25131	-0.036163	0.29587	-0.07309	0.15732	0.046997	0.19867	-0.015259	0.82214	-0.000153	-0.3624	-0.13473	-0.002136	-0.001984
12.667	0.006256	0.12039	-0.052032	-0.001068	-0.008392	-0.015564	0.25238	0.013885	0	-0.10468	0.073395	0.014801	0.025482	0.12894	-0.077972	0.015106	0.014801	-0.050659	0.6955	-0.112	0.19699	-0.059204	0.19211	0.048981	0.14633	-0.023193	0.32013	0.001678	-0.92377	-0.051422	0.000458	-0.002899
12.668	0.006104	0.21072	-0.058441	0.03067	-0.017853	-0.024109	0.22827	0.010986	0.061035	-0.071869	0.16983	0.005035	-0.015869	0.080109	0.059967	0.002441	0.001984	0.034943	-0.23727	-0.096436	0.14297	-0.037842	0.10147	0.079193	0.11429	-0.003052	-0.085449	-0.003967	0.92575	-0.17288	-0.005035	-0.003815
12.669	0.007324	0.27725	-0.044403	0.015411	-0.001984	-0.008698	0.22842	0.010529	0.11734	-0.074615	0.27054	0.005035	-0.043182	0.07843	-0.062714	0.006714	-0.012817	0.17563	-0.73593	-0.088501	0.059357	-0.065918	0.028534	-0.088959	0.062408	0.009308	-0.11185	-0.000763	1.2527	-0.026245	-0.000305	0.001221
12.67	-0.006561	0.32059	0.011292	-0.001068	-0.016174	-0.027466	0.23407	0.009613	0.15213	-0.037537	0.34759	0.010223	0.008392	0.080719	-0.014038	0.012665	0.001984	0.24353	-0.66971	-0.10376	0.037079	-0.019989	0.065002	-0.22324	0.10178	0.012054	-0.39475	0.001373	-0.96008	-0.14008	-0.002136	0.00412
12.671	-0.005341	0.31235	-0.029907	0.004578	0.001221	-0.02594	0.22888	0.012054	0.19348	-0.048065	0.13977	0.002136	-0.015106	0.012512	0.059662	-0.006866	-0.00885	0.26581	0.20706	-0.084839	0.056763	0.016174	-0.10834	-0.17746	0.15945	0.016479	0.14221	-0.001221	-0.4303	-0.22263	-0.005493	0.001678
12.672	0.008087	0.27451	-0.081787	0.008698	-0.001984	-0.009003	0.22018	0.005798	0.23224	-0.040588	-0.32288	0.022278	0.056152	-0.003052	-0.000763	0.007629	-0.024872	0.2977	-0.27969	-0.084686	0.043182	0.072479	-0.18509	-0.14145	0.20081	-0.006104	0.92346	-0.005646	-1.0043	0	-0.000458	-0.013885
12.673	0.003967	0.19012	-0.11108	0.005951	0.001678	-0.006104	0.20981	0.010681	0.25909	-0.053101	-0.30975	0.007629	0.068665	-0.000153	0.11246	0.002747	-0.019989	0.40237	-0.47607	-0.083771	0.015411	0.079651	-0.056763	-0.031738	0.50903	-0.016937	1.255	-0.005798	-1.5198	0.14648	-0.001526	-0.01358
12.674	0.000763	0.16129	-0.112	0.005951	0.015411	0.001373	0.21118	0.010986	0.28	-0.035248	-0.15686	0.007629	0.044861	-0.082397	0.10544	0.013733	-0.018616	0.53772	-0.30106	-0.09964	0.035706	0.13947	-0.17487	0.056152	0.56397	-0.01236	0.68268	-0.005188	-1.075	0.020447	-0.002594	-0.011139
12.675	0.009003	0.11993	-0.06958	0.009003	-0.010071	0.001068	0.20157	0.011292	0.29404	-0.033569	-0.11688	0.008698	0.020447	-0.045471	0.010986	-0.012512	-0.027008	0.60501	0.33066	-0.056	0.039215	0.14114	-0.30243	0.080414	0.48111	-0.015411	-0.41473	-0.009003	-0.37125	0.24094	-0.000458	-0.015717
12.676	0.006561	0.1387	-0.065155	0.007629	0.005188	0.00412	0.15533	0.01236	0.31387	-0.003052	-0.001984	0.006104	-0.035248	-0.087585	0.053101	-0.020905	0.005798	0.45273	-0.059662	0.001068	0.006409	0.059357	-0.023499	0.13947	0.4567	-0.014343	-0.66345	-0.000916	-1.4935	0.068054	-0.001221	-0.005493
12.677	0.004425	0.24582	-0.09079	0.00061	-0.004272	-0.019226	0.15182	0.013123	0.3125	0.022278	-0.019226	0.007935	-0.006561	0.006409	0.14404	-0.016327	0.021973	0.36774	-0.52155	-0.012817	-0.026703	-0.009613	0.37705	0.039215	0.242	-0.008545	-0.56854	-0.002136	-0.77652	-0.24368	-0.000458	-0.000763
12.678	0.00946	0.26886	-0.093689	-0.00412	0.000305	-0.035706	0.14084	0.00885	0.289	0.019226	-0.061951	0.016479	0.015106	0.050354	-0.030823	-0.010376	0.0177	0.41992	-0.52521	0.013885	-0.020905	0.021515	0.31494	-0.017548	0.037231	0.001221	-0.88074	0.002136	-0.90851	-0.26642	-0.001373	-0.004578
12.679	0.016632	0.27451	-0.12314	0.011444	-0.01709	-0.046082	0.1091	0.001678	0.31769	-0.002747	-0.037537	0.001526	0.033264	-0.12695	-0.040131	0.000305	0.01358	0.51041	-0.54535	0.028229	-0.002594	0.012512	0.1149	-0.059052	-0.30243	0.001373	-0.29022	-0.002899	-0.72067	-0.34149	0	0.000305
